<svg width="175" height="37" viewBox="0 0 175 37" fill="none" xmlns="http://www.w3.org/2000/svg">
<path d="M25.956 1.36325L16.992 26.6353H9.288L0.324 1.36325H6.876L13.14 20.4433L19.44 1.36325H25.956ZM41.4169 26.6353L36.1609 17.0953H34.6849V26.6353H28.5289V1.36325H38.8609C40.8529 1.36325 42.5449 1.71125 43.9369 2.40725C45.3529 3.10325 46.4089 4.06325 47.1049 5.28725C47.8009 6.48725 48.1489 7.83125 48.1489 9.31925C48.1489 10.9993 47.6689 12.4993 46.7089 13.8193C45.7729 15.1393 44.3809 16.0753 42.5329 16.6273L48.3649 26.6353H41.4169ZM34.6849 12.7393H38.5009C39.6289 12.7393 40.4689 12.4633 41.0209 11.9113C41.5969 11.3593 41.8849 10.5793 41.8849 9.57125C41.8849 8.61125 41.5969 7.85525 41.0209 7.30325C40.4689 6.75125 39.6289 6.47525 38.5009 6.47525H34.6849V12.7393ZM72.5302 26.6353L67.2742 17.0953H65.7982V26.6353H59.6422V1.36325H69.9742C71.9662 1.36325 73.6582 1.71125 75.0502 2.40725C76.4662 3.10325 77.5222 4.06325 78.2182 5.28725C78.9142 6.48725 79.2622 7.83125 79.2622 9.31925C79.2622 10.9993 78.7822 12.4993 77.8222 13.8193C76.8862 15.1393 75.4942 16.0753 73.6462 16.6273L79.4782 26.6353H72.5302ZM65.7982 12.7393H69.6142C70.7422 12.7393 71.5822 12.4633 72.1342 11.9113C72.7102 11.3593 72.9982 10.5793 72.9982 9.57125C72.9982 8.61125 72.7102 7.85525 72.1342 7.30325C71.5822 6.75125 70.7422 6.47525 69.6142 6.47525H65.7982V12.7393ZM102.063 16.2673C102.063 16.8433 102.027 17.4433 101.955 18.0673H88.0225C88.1185 19.3153 88.5145 20.2753 89.2105 20.9473C89.9305 21.5953 90.8065 21.9193 91.8385 21.9193C93.3745 21.9193 94.4425 21.2713 95.0425 19.9753H101.595C101.259 21.2953 100.647 22.4833 99.7585 23.5393C98.8945 24.5953 97.8025 25.4233 96.4825 26.0233C95.1625 26.6233 93.6865 26.9233 92.0545 26.9233C90.0865 26.9233 88.3345 26.5033 86.7985 25.6633C85.2625 24.8233 84.0625 23.6233 83.1985 22.0633C82.3345 20.5033 81.9025 18.6793 81.9025 16.5913C81.9025 14.5033 82.3225 12.6793 83.1625 11.1193C84.0265 9.55925 85.2265 8.35925 86.7625 7.51925C88.2985 6.67925 90.0625 6.25925 92.0545 6.25925C93.9985 6.25925 95.7265 6.66725 97.2385 7.48325C98.7505 8.29925 99.9265 9.46325 100.767 10.9753C101.631 12.4873 102.063 14.2513 102.063 16.2673ZM95.7625 14.6473C95.7625 13.5913 95.4025 12.7513 94.6825 12.1273C93.9625 11.5033 93.0625 11.1913 91.9825 11.1913C90.9505 11.1913 90.0745 11.4913 89.3545 12.0913C88.6585 12.6913 88.2265 13.5433 88.0585 14.6473H95.7625ZM104.086 16.5553C104.086 14.4913 104.47 12.6793 105.238 11.1193C106.03 9.55925 107.098 8.35925 108.442 7.51925C109.786 6.67925 111.286 6.25925 112.942 6.25925C114.358 6.25925 115.594 6.54725 116.65 7.12325C117.73 7.69925 118.558 8.45525 119.134 9.39125V6.54725H125.29V26.6353H119.134V23.7913C118.534 24.7273 117.694 25.4833 116.614 26.0593C115.558 26.6353 114.322 26.9233 112.906 26.9233C111.274 26.9233 109.786 26.5033 108.442 25.6633C107.098 24.7993 106.03 23.5873 105.238 22.0273C104.47 20.4433 104.086 18.6193 104.086 16.5553ZM119.134 16.5913C119.134 15.0553 118.702 13.8433 117.838 12.9553C116.998 12.0673 115.966 11.6233 114.742 11.6233C113.518 11.6233 112.474 12.0673 111.61 12.9553C110.77 13.8193 110.35 15.0193 110.35 16.5553C110.35 18.0913 110.77 19.3153 111.61 20.2273C112.474 21.1153 113.518 21.5593 114.742 21.5593C115.966 21.5593 116.998 21.1153 117.838 20.2273C118.702 19.3393 119.134 18.1273 119.134 16.5913ZM128.52 16.5553C128.52 14.4913 128.904 12.6793 129.672 11.1193C130.464 9.55925 131.532 8.35925 132.876 7.51925C134.22 6.67925 135.72 6.25925 137.376 6.25925C138.696 6.25925 139.896 6.53525 140.976 7.08725C142.08 7.63925 142.944 8.38325 143.568 9.31925V-0.00474644H149.724V26.6353H143.568V23.7553C142.992 24.7153 142.164 25.4833 141.084 26.0593C140.028 26.6353 138.792 26.9233 137.376 26.9233C135.72 26.9233 134.22 26.5033 132.876 25.6633C131.532 24.7993 130.464 23.5873 129.672 22.0273C128.904 20.4433 128.52 18.6193 128.52 16.5553ZM143.568 16.5913C143.568 15.0553 143.136 13.8433 142.272 12.9553C141.432 12.0673 140.4 11.6233 139.176 11.6233C137.952 11.6233 136.908 12.0673 136.044 12.9553C135.204 13.8193 134.784 15.0193 134.784 16.5553C134.784 18.0913 135.204 19.3153 136.044 20.2273C136.908 21.1153 137.952 21.5593 139.176 21.5593C140.4 21.5593 141.432 21.1153 142.272 20.2273C143.136 19.3393 143.568 18.1273 143.568 16.5913ZM174.697 6.54725L162.097 36.1753H155.473L160.081 25.9513L151.909 6.54725H158.785L163.429 19.1113L168.037 6.54725H174.697Z" fill="white"/>
</svg>
